<?xml version="1.0" standalone="no"?>
<svg xmlns="http://www.w3.org/2000/svg" version="1.1" width="483" height="483">
	<!-- Created with https://api.qrserver.com (QR Code API, see goQR.me/api for information) -->
	<title>QR Code</title>
	<desc>ddd</desc>
	<rect style="fill:rgb(255, 255, 255);fill-opacity:1" x="0" y="0" width="483" height="483" />
	<g id="elements">
		<path style="fill:rgb(0, 0, 0)" d="M 0,0 l 23,0 0,23 -23,0 z M 23,0 l 23,0 0,23 -23,0 z M 46,0 l 23,0 0,23 -23,0 z M 69,0 l 23,0 0,23 -23,0 z M 92,0 l 23,0 0,23 -23,0 z M 115,0 l 23,0 0,23 -23,0 z M 138,0 l 23,0 0,23 -23,0 z M 230,0 l 23,0 0,23 -23,0 z M 253,0 l 23,0 0,23 -23,0 z M 276,0 l 23,0 0,23 -23,0 z M 322,0 l 23,0 0,23 -23,0 z M 345,0 l 23,0 0,23 -23,0 z M 368,0 l 23,0 0,23 -23,0 z M 391,0 l 23,0 0,23 -23,0 z M 414,0 l 23,0 0,23 -23,0 z M 437,0 l 23,0 0,23 -23,0 z M 460,0 l 23,0 0,23 -23,0 z M 0,23 l 23,0 0,23 -23,0 z M 138,23 l 23,0 0,23 -23,0 z M 184,23 l 23,0 0,23 -23,0 z M 207,23 l 23,0 0,23 -23,0 z M 230,23 l 23,0 0,23 -23,0 z M 276,23 l 23,0 0,23 -23,0 z M 322,23 l 23,0 0,23 -23,0 z M 460,23 l 23,0 0,23 -23,0 z M 0,46 l 23,0 0,23 -23,0 z M 46,46 l 23,0 0,23 -23,0 z M 69,46 l 23,0 0,23 -23,0 z M 92,46 l 23,0 0,23 -23,0 z M 138,46 l 23,0 0,23 -23,0 z M 230,46 l 23,0 0,23 -23,0 z M 253,46 l 23,0 0,23 -23,0 z M 276,46 l 23,0 0,23 -23,0 z M 322,46 l 23,0 0,23 -23,0 z M 368,46 l 23,0 0,23 -23,0 z M 391,46 l 23,0 0,23 -23,0 z M 414,46 l 23,0 0,23 -23,0 z M 460,46 l 23,0 0,23 -23,0 z M 0,69 l 23,0 0,23 -23,0 z M 46,69 l 23,0 0,23 -23,0 z M 69,69 l 23,0 0,23 -23,0 z M 92,69 l 23,0 0,23 -23,0 z M 138,69 l 23,0 0,23 -23,0 z M 184,69 l 23,0 0,23 -23,0 z M 207,69 l 23,0 0,23 -23,0 z M 276,69 l 23,0 0,23 -23,0 z M 322,69 l 23,0 0,23 -23,0 z M 368,69 l 23,0 0,23 -23,0 z M 391,69 l 23,0 0,23 -23,0 z M 414,69 l 23,0 0,23 -23,0 z M 460,69 l 23,0 0,23 -23,0 z M 0,92 l 23,0 0,23 -23,0 z M 46,92 l 23,0 0,23 -23,0 z M 69,92 l 23,0 0,23 -23,0 z M 92,92 l 23,0 0,23 -23,0 z M 138,92 l 23,0 0,23 -23,0 z M 207,92 l 23,0 0,23 -23,0 z M 276,92 l 23,0 0,23 -23,0 z M 322,92 l 23,0 0,23 -23,0 z M 368,92 l 23,0 0,23 -23,0 z M 391,92 l 23,0 0,23 -23,0 z M 414,92 l 23,0 0,23 -23,0 z M 460,92 l 23,0 0,23 -23,0 z M 0,115 l 23,0 0,23 -23,0 z M 138,115 l 23,0 0,23 -23,0 z M 184,115 l 23,0 0,23 -23,0 z M 253,115 l 23,0 0,23 -23,0 z M 322,115 l 23,0 0,23 -23,0 z M 460,115 l 23,0 0,23 -23,0 z M 0,138 l 23,0 0,23 -23,0 z M 23,138 l 23,0 0,23 -23,0 z M 46,138 l 23,0 0,23 -23,0 z M 69,138 l 23,0 0,23 -23,0 z M 92,138 l 23,0 0,23 -23,0 z M 115,138 l 23,0 0,23 -23,0 z M 138,138 l 23,0 0,23 -23,0 z M 184,138 l 23,0 0,23 -23,0 z M 230,138 l 23,0 0,23 -23,0 z M 276,138 l 23,0 0,23 -23,0 z M 322,138 l 23,0 0,23 -23,0 z M 345,138 l 23,0 0,23 -23,0 z M 368,138 l 23,0 0,23 -23,0 z M 391,138 l 23,0 0,23 -23,0 z M 414,138 l 23,0 0,23 -23,0 z M 437,138 l 23,0 0,23 -23,0 z M 460,138 l 23,0 0,23 -23,0 z M 207,161 l 23,0 0,23 -23,0 z M 0,184 l 23,0 0,23 -23,0 z M 23,184 l 23,0 0,23 -23,0 z M 46,184 l 23,0 0,23 -23,0 z M 69,184 l 23,0 0,23 -23,0 z M 92,184 l 23,0 0,23 -23,0 z M 138,184 l 23,0 0,23 -23,0 z M 161,184 l 23,0 0,23 -23,0 z M 184,184 l 23,0 0,23 -23,0 z M 253,184 l 23,0 0,23 -23,0 z M 299,184 l 23,0 0,23 -23,0 z M 345,184 l 23,0 0,23 -23,0 z M 391,184 l 23,0 0,23 -23,0 z M 437,184 l 23,0 0,23 -23,0 z M 23,207 l 23,0 0,23 -23,0 z M 46,207 l 23,0 0,23 -23,0 z M 69,207 l 23,0 0,23 -23,0 z M 115,207 l 23,0 0,23 -23,0 z M 161,207 l 23,0 0,23 -23,0 z M 184,207 l 23,0 0,23 -23,0 z M 207,207 l 23,0 0,23 -23,0 z M 253,207 l 23,0 0,23 -23,0 z M 276,207 l 23,0 0,23 -23,0 z M 299,207 l 23,0 0,23 -23,0 z M 322,207 l 23,0 0,23 -23,0 z M 391,207 l 23,0 0,23 -23,0 z M 414,207 l 23,0 0,23 -23,0 z M 460,207 l 23,0 0,23 -23,0 z M 0,230 l 23,0 0,23 -23,0 z M 23,230 l 23,0 0,23 -23,0 z M 46,230 l 23,0 0,23 -23,0 z M 92,230 l 23,0 0,23 -23,0 z M 115,230 l 23,0 0,23 -23,0 z M 138,230 l 23,0 0,23 -23,0 z M 161,230 l 23,0 0,23 -23,0 z M 184,230 l 23,0 0,23 -23,0 z M 276,230 l 23,0 0,23 -23,0 z M 322,230 l 23,0 0,23 -23,0 z M 345,230 l 23,0 0,23 -23,0 z M 414,230 l 23,0 0,23 -23,0 z M 437,230 l 23,0 0,23 -23,0 z M 23,253 l 23,0 0,23 -23,0 z M 69,253 l 23,0 0,23 -23,0 z M 92,253 l 23,0 0,23 -23,0 z M 184,253 l 23,0 0,23 -23,0 z M 207,253 l 23,0 0,23 -23,0 z M 253,253 l 23,0 0,23 -23,0 z M 276,253 l 23,0 0,23 -23,0 z M 299,253 l 23,0 0,23 -23,0 z M 322,253 l 23,0 0,23 -23,0 z M 391,253 l 23,0 0,23 -23,0 z M 414,253 l 23,0 0,23 -23,0 z M 69,276 l 23,0 0,23 -23,0 z M 115,276 l 23,0 0,23 -23,0 z M 138,276 l 23,0 0,23 -23,0 z M 161,276 l 23,0 0,23 -23,0 z M 184,276 l 23,0 0,23 -23,0 z M 207,276 l 23,0 0,23 -23,0 z M 276,276 l 23,0 0,23 -23,0 z M 345,276 l 23,0 0,23 -23,0 z M 437,276 l 23,0 0,23 -23,0 z M 184,299 l 23,0 0,23 -23,0 z M 207,299 l 23,0 0,23 -23,0 z M 276,299 l 23,0 0,23 -23,0 z M 345,299 l 23,0 0,23 -23,0 z M 391,299 l 23,0 0,23 -23,0 z M 414,299 l 23,0 0,23 -23,0 z M 460,299 l 23,0 0,23 -23,0 z M 0,322 l 23,0 0,23 -23,0 z M 23,322 l 23,0 0,23 -23,0 z M 46,322 l 23,0 0,23 -23,0 z M 69,322 l 23,0 0,23 -23,0 z M 92,322 l 23,0 0,23 -23,0 z M 115,322 l 23,0 0,23 -23,0 z M 138,322 l 23,0 0,23 -23,0 z M 184,322 l 23,0 0,23 -23,0 z M 207,322 l 23,0 0,23 -23,0 z M 253,322 l 23,0 0,23 -23,0 z M 299,322 l 23,0 0,23 -23,0 z M 368,322 l 23,0 0,23 -23,0 z M 414,322 l 23,0 0,23 -23,0 z M 437,322 l 23,0 0,23 -23,0 z M 0,345 l 23,0 0,23 -23,0 z M 138,345 l 23,0 0,23 -23,0 z M 207,345 l 23,0 0,23 -23,0 z M 230,345 l 23,0 0,23 -23,0 z M 345,345 l 23,0 0,23 -23,0 z M 368,345 l 23,0 0,23 -23,0 z M 414,345 l 23,0 0,23 -23,0 z M 437,345 l 23,0 0,23 -23,0 z M 460,345 l 23,0 0,23 -23,0 z M 0,368 l 23,0 0,23 -23,0 z M 46,368 l 23,0 0,23 -23,0 z M 69,368 l 23,0 0,23 -23,0 z M 92,368 l 23,0 0,23 -23,0 z M 138,368 l 23,0 0,23 -23,0 z M 184,368 l 23,0 0,23 -23,0 z M 253,368 l 23,0 0,23 -23,0 z M 299,368 l 23,0 0,23 -23,0 z M 368,368 l 23,0 0,23 -23,0 z M 414,368 l 23,0 0,23 -23,0 z M 0,391 l 23,0 0,23 -23,0 z M 46,391 l 23,0 0,23 -23,0 z M 69,391 l 23,0 0,23 -23,0 z M 92,391 l 23,0 0,23 -23,0 z M 138,391 l 23,0 0,23 -23,0 z M 184,391 l 23,0 0,23 -23,0 z M 253,391 l 23,0 0,23 -23,0 z M 276,391 l 23,0 0,23 -23,0 z M 299,391 l 23,0 0,23 -23,0 z M 322,391 l 23,0 0,23 -23,0 z M 391,391 l 23,0 0,23 -23,0 z M 0,414 l 23,0 0,23 -23,0 z M 46,414 l 23,0 0,23 -23,0 z M 69,414 l 23,0 0,23 -23,0 z M 92,414 l 23,0 0,23 -23,0 z M 138,414 l 23,0 0,23 -23,0 z M 184,414 l 23,0 0,23 -23,0 z M 207,414 l 23,0 0,23 -23,0 z M 230,414 l 23,0 0,23 -23,0 z M 276,414 l 23,0 0,23 -23,0 z M 322,414 l 23,0 0,23 -23,0 z M 345,414 l 23,0 0,23 -23,0 z M 0,437 l 23,0 0,23 -23,0 z M 138,437 l 23,0 0,23 -23,0 z M 184,437 l 23,0 0,23 -23,0 z M 207,437 l 23,0 0,23 -23,0 z M 230,437 l 23,0 0,23 -23,0 z M 253,437 l 23,0 0,23 -23,0 z M 276,437 l 23,0 0,23 -23,0 z M 299,437 l 23,0 0,23 -23,0 z M 322,437 l 23,0 0,23 -23,0 z M 391,437 l 23,0 0,23 -23,0 z M 0,460 l 23,0 0,23 -23,0 z M 23,460 l 23,0 0,23 -23,0 z M 46,460 l 23,0 0,23 -23,0 z M 69,460 l 23,0 0,23 -23,0 z M 92,460 l 23,0 0,23 -23,0 z M 115,460 l 23,0 0,23 -23,0 z M 138,460 l 23,0 0,23 -23,0 z M 184,460 l 23,0 0,23 -23,0 z M 230,460 l 23,0 0,23 -23,0 z M 276,460 l 23,0 0,23 -23,0 z M 345,460 l 23,0 0,23 -23,0 z M 414,460 l 23,0 0,23 -23,0 z M 437,460 l 23,0 0,23 -23,0 z " />
	</g>
</svg>
